<svg width="70" height="17" viewBox="0 0 70 17" fill="none" xmlns="http://www.w3.org/2000/svg">
<path d="M2.842 5.243V8.47H6.783V9.793H2.842V14H1.197V3.92H7.483V5.243H2.842ZM10.758 14H9.11302V3.92H10.758V14ZM18.9702 12.628V14H13.1462V3.92H14.7842V12.628H18.9702ZM26.0305 5.285H22.8875V14H21.2565V5.285H18.1065V3.92H26.0305V5.285ZM33.7263 12.677L33.7193 14H27.4333V3.92H33.7193V5.243H29.0783V8.281H32.7883V9.562H29.0783V12.677H33.7263ZM38.4257 8.75C38.7991 8.75 39.1257 8.70567 39.4057 8.617C39.6857 8.52367 39.9191 8.39533 40.1057 8.232C40.2924 8.06867 40.4324 7.875 40.5257 7.651C40.6191 7.42233 40.6657 7.17033 40.6657 6.895C40.6657 6.34433 40.4837 5.92433 40.1197 5.635C39.7557 5.34567 39.2051 5.201 38.4677 5.201H37.1377V8.75H38.4257ZM43.1717 14H41.7087C41.4194 14 41.2094 13.888 41.0787 13.664L38.7267 10.269C38.6474 10.1523 38.5611 10.0683 38.4677 10.017C38.3744 9.96567 38.2344 9.94 38.0477 9.94H37.1377V14H35.4997V3.92H38.4677C39.1304 3.92 39.6997 3.98767 40.1757 4.123C40.6564 4.25833 41.0507 4.452 41.3587 4.704C41.6667 4.95133 41.8931 5.25 42.0377 5.6C42.1871 5.95 42.2617 6.33967 42.2617 6.769C42.2617 7.119 42.2081 7.44567 42.1007 7.749C41.9981 8.05233 41.8464 8.32767 41.6457 8.575C41.4497 8.82233 41.2071 9.037 40.9177 9.219C40.6284 9.401 40.2994 9.54333 39.9307 9.646C40.1314 9.76733 40.3041 9.93767 40.4487 10.157L43.1717 14Z" fill="black"/>
<path d="M55.8333 14H59.1667C59.625 14 60 13.625 60 13.1667C60 12.7083 59.625 12.3333 59.1667 12.3333H55.8333C55.375 12.3333 55 12.7083 55 13.1667C55 13.625 55.375 14 55.8333 14ZM55 4.83333C55 5.29167 55.375 5.66667 55.8333 5.66667H69.1667C69.625 5.66667 70 5.29167 70 4.83333C70 4.375 69.625 4 69.1667 4H55.8333C55.375 4 55 4.375 55 4.83333ZM55.8333 9.83333H64.1667C64.625 9.83333 65 9.45833 65 9C65 8.54167 64.625 8.16667 64.1667 8.16667H55.8333C55.375 8.16667 55 8.54167 55 9C55 9.45833 55.375 9.83333 55.8333 9.83333Z" fill="black"/>
</svg>
